<?xml version="1.0" encoding="UTF-8" standalone="no"?> <!-- Created with Vectornator (http://vectornator.io/) --><!DOCTYPE svg PUBLIC "-//W3C//DTD SVG 1.1//EN" "http://www.w3.org/Graphics/SVG/1.1/DTD/svg11.dtd">
<svg height="100%" stroke-miterlimit="10" style="fill-rule:nonzero;clip-rule:evenodd;stroke-linecap:round;stroke-linejoin:round;" version="1.1" viewBox="0 0 1024 1024" width="100%" xml:space="preserve" xmlns="http://www.w3.org/2000/svg" xmlns:vectornator="http://vectornator.io" xmlns:xlink="http://www.w3.org/1999/xlink">
<g id="Layer-1" opacity="0.220085" vectornator:layerName="Layer 1" visibility="hidden">
<use opacity="1" transform="matrix(0.706207 0 0 0.706207 113.624 2.87727)" xlink:href="#Image"/>
</g>
<g id="Layer-2" vectornator:layerName="Layer 2">
<path d="M398.219 19.6875C388.022 19.7112 373.73 22.4437 368.781 31.0312C363.833 39.6188 367.969 49.6875 367.969 49.6875L391.781 88.2188L391.688 240L321.938 423.812C321.937 423.812 301.873 477.574 276.577 545.875C234.076 660.633 176.807 816.435 175.125 827.25C172.442 844.502 164.514 874.458 177.875 898.812C191.236 923.167 216.898 948.742 271.281 971.562C325.665 994.383 524.281 1002.66 524.281 1002.66L524.281 1003.47C524.281 1003.47 722.929 995.196 777.312 972.375C831.696 949.554 857.357 924.011 870.719 899.656C884.08 875.301 876.152 845.315 873.469 828.062C870.786 810.81 726.656 424.625 726.656 424.625L656.906 240.812L656.812 89.0312L680.594 50.5C680.594 50.5 684.761 40.4313 679.812 31.8438C674.864 23.2562 660.54 20.555 650.344 20.5312C640.147 20.5075 524.281 21.875 524.281 21.875L524.281 21.0312C524.281 21.0312 408.415 19.6638 398.219 19.6875Z" fill="none" fill-rule="evenodd" opacity="1" stroke="#2d3748" stroke-linecap="round" stroke-linejoin="round" stroke-width="43.8129"/>
<path d="M514.688 158.844C455.68 190.758 437.664 223.653 440 266.875C442.355 310.45 466.013 313.376 489.562 355.75C512.536 293.448 491.896 302.021 513.312 239.719C502.534 311.824 501.409 519.469 500.188 535.844C490.705 525.622 489.694 487.672 449.625 466.844C409.556 446.015 344.239 477.215 325.406 488.688C325.406 488.687 332.692 492.701 349.188 499.938C365.683 507.174 381.624 532.746 408.469 543.375C435.314 554.004 461.614 551.641 475.344 544.969C471.005 530.319 459.914 519.938 429.438 493.031C466.281 507.359 485.774 528.976 494.062 564.812C502.351 600.649 502.392 642.698 500.156 668.031C491.988 664.87 482.92 656.957 469.438 641.688C455.955 626.418 424.808 604.891 399.875 600.25C374.942 595.609 352.037 593.403 298.625 613.656C333.796 674.58 362.854 682.484 379.969 688.5C397.084 694.516 440.739 684.842 461.438 675.781C442.29 656.633 395.707 639.749 356.562 625.969C395.165 626.748 500.094 675.812 500.094 675.812L502.688 785.781C329.218 782.172 174.094 883.156 174.094 883.156C174.094 883.156 190.354 978.979 477.219 1000.47C764.083 1021.96 857.769 926.742 872.125 879.781C840.042 847.987 702.931 798.589 532.062 787.25L525.844 746.719C525.844 746.719 562.732 726.651 575.906 723.5C589.08 720.349 620.81 744.593 648.969 740.594C677.127 736.595 717.095 696.74 737.812 678.219C725.712 673.57 720.687 681.726 694.312 666.188C667.938 650.649 632.591 624.045 590.25 634.969C547.909 645.893 527.889 713.3 540.031 709.469C550.279 706.235 604.175 692.245 643.156 691.094C606.851 694.806 549.402 718.947 523.25 727.625C513.569 633.389 541.875 592.039 567.969 566.156C591.203 543.11 612.094 530.594 612.094 530.594C612.094 530.594 556.833 578.498 546 603.906C569.193 616.977 596.684 603.624 615.812 592.562C634.941 581.501 641.067 559.414 650.938 546.688C660.808 533.961 673.486 518.398 709.531 525.312C691.35 504.079 650.788 494.512 624.188 493.188C597.587 491.863 539.994 523.11 527.625 543.906C515.256 564.703 529.187 591.281 529.188 591.281C529.187 591.281 525.51 595.972 519.5 605.531C508.73 450.261 559.827 418.184 574.406 410C570.943 415.251 541.163 441.47 549.781 446.562C558.399 451.655 602.707 443.094 612.688 438.688C622.668 434.281 637.108 414.921 639.906 401.5C642.705 388.079 643.846 390.486 655.031 364.5C643.843 361.858 601.29 347.738 571.469 370.25C541.648 392.762 541.188 429.938 541.188 429.938L514.281 491.281L511.531 354.406C511.531 354.406 519.019 345.064 526.5 337.062C551.327 314.177 556.841 298.765 558.562 274.469C560.284 250.172 526.703 201.089 521.125 191.25C515.547 181.411 517.897 179.575 514.688 158.844Z" fill="#2d3748" fill-rule="evenodd" opacity="1" stroke="none"/>
</g>
</svg>
