<?xml version="1.0" encoding="UTF-8" standalone="no"?> <!-- Created with Vectornator (http://vectornator.io/) --><!DOCTYPE svg PUBLIC "-//W3C//DTD SVG 1.1//EN" "http://www.w3.org/Graphics/SVG/1.1/DTD/svg11.dtd">
<svg height="100%" stroke-miterlimit="10" style="fill-rule:nonzero;clip-rule:evenodd;stroke-linecap:round;stroke-linejoin:round;" version="1.1" viewBox="0 0 1024 1024" width="100%" xml:space="preserve" xmlns="http://www.w3.org/2000/svg" xmlns:vectornator="http://vectornator.io" xmlns:xlink="http://www.w3.org/1999/xlink">
<defs/>
<g id="Layer-2-copy" vectornator:layerName="Layer 2 copy">
<path d="M398.219 19.6875C388.022 19.7112 373.73 22.4437 368.781 31.0312C363.833 39.6188 367.969 49.6875 367.969 49.6875L391.781 88.2188L391.688 240L321.938 423.812C321.937 423.812 301.873 477.574 276.577 545.875C234.076 660.633 176.807 816.435 175.125 827.25C172.442 844.502 164.514 874.458 177.875 898.812C191.236 923.167 216.898 948.742 271.281 971.562C325.665 994.383 524.281 1002.66 524.281 1002.66L524.281 1003.47C524.281 1003.47 722.929 995.196 777.312 972.375C831.696 949.554 857.357 924.011 870.719 899.656C884.08 875.301 876.152 845.315 873.469 828.062C870.786 810.81 726.656 424.625 726.656 424.625L656.906 240.812L656.812 89.0312L680.594 50.5C680.594 50.5 684.761 40.4313 679.812 31.8438C674.864 23.2562 660.54 20.555 650.344 20.5312C640.147 20.5075 524.281 21.875 524.281 21.875L524.281 21.0312C524.281 21.0312 408.415 19.6638 398.219 19.6875Z" fill="none" fill-rule="evenodd" opacity="1" stroke="#2d3748" stroke-linecap="round" stroke-linejoin="round" stroke-width="43.8129"/>
<path d="M174.109 883.164C174.109 883.164 336.933 777.066 515.507 786.164C694.081 795.263 839.015 846.963 872.135 879.786C857.779 926.746 764.07 1021.96 477.206 1000.47C190.341 978.98 174.109 883.164 174.109 883.164Z" fill="#2d3748" fill-rule="evenodd" opacity="1" stroke="none"/>
<path d="M502.822 791.755L500.106 675.819C500.106 675.819 395.18 626.76 356.577 625.981C395.722 639.761 442.29 656.637 461.437 675.785C440.739 684.846 397.085 694.509 379.969 688.493C362.854 682.477 333.806 674.572 298.635 613.648C352.047 593.395 374.942 595.604 399.875 600.245C424.809 604.886 455.949 626.407 469.431 641.676C482.914 656.946 491.975 664.879 500.144 668.041C502.38 642.707 502.337 600.653 494.049 564.817C485.761 528.981 466.268 507.362 429.425 493.034C459.902 519.94 471.001 530.306 475.34 544.956C461.61 551.629 435.307 554 408.462 543.371C381.617 532.742 365.697 507.169 349.201 499.932C332.706 492.695 325.409 488.688 325.409 488.688C344.242 477.216 409.544 446.03 449.613 466.859C489.682 487.688 490.692 525.636 500.175 535.857C501.397 519.482 502.534 311.815 513.312 239.71C491.895 302.012 512.533 293.445 489.559 355.747C466.009 313.373 442.347 310.444 439.991 266.868C437.655 223.646 455.671 190.768 514.678 158.854C517.888 179.585 515.555 181.424 521.133 191.262C526.711 201.101 560.282 250.169 558.56 274.466C556.838 298.762 551.324 314.175 526.498 337.061C519.016 345.062 511.544 354.406 511.544 354.406L514.297 491.271L541.193 429.944C541.193 429.944 541.635 392.759 571.456 370.246C601.277 347.734 643.847 361.863 655.036 364.505C643.85 390.491 642.703 388.089 639.905 401.511C637.106 414.932 622.673 434.269 612.692 438.675C602.711 443.081 558.394 451.655 549.776 446.563C541.158 441.47 570.93 415.241 574.393 409.99C559.814 418.175 508.741 450.26 519.51 605.531C525.52 595.971 529.176 591.276 529.176 591.276C529.176 591.276 515.258 564.688 527.627 543.892C539.995 523.095 597.587 491.854 624.188 493.179C650.789 494.504 691.344 504.077 709.525 525.311C673.479 518.396 660.811 533.973 650.941 546.7C641.071 559.427 634.952 581.501 615.823 592.562C596.694 603.624 569.187 616.992 545.994 603.921C556.827 578.513 612.082 530.608 612.082 530.608C612.082 530.608 591.207 543.112 567.973 566.159C541.879 592.042 513.566 633.395 523.247 727.631C554.97 717.104 632.825 683.729 663.015 691.796C625.816 686.506 552.17 705.641 540.027 709.472C527.885 713.303 547.923 645.879 590.264 634.956C632.604 624.032 667.943 650.659 694.318 666.197C720.692 681.736 725.703 673.573 737.804 678.222C717.086 696.743 677.121 736.604 648.963 740.603C620.804 744.602 589.075 720.355 575.901 723.506C562.727 726.657 525.829 746.717 525.829 746.717L532.475 789.936L502.822 791.755Z" fill="#2d3748" fill-rule="evenodd" opacity="1" stroke="none"/>
</g>
<g id="Layer-2-copy-copy" vectornator:layerName="Layer 2 copy copy">
<path d="M415.938 459.875C379.784 460.397 339.531 480.083 325.406 488.688C325.406 488.687 332.692 492.701 349.188 499.938C365.683 507.174 381.624 532.746 408.469 543.375C435.314 554.004 461.614 551.641 475.344 544.969C471.005 530.319 459.914 519.938 429.438 493.031C453.128 502.244 460.07 509.03 475.604 524.489C482.57 526.269 499.785 535.361 499.875 535.375C490.694 524.636 489.223 487.428 449.625 466.844C439.608 461.637 427.989 459.701 415.938 459.875Z" fill="#ed64a6" fill-rule="evenodd" opacity="1" stroke="none"/>
</g>
<g id="Layer-2-copy-copy_2" vectornator:layerName="Layer 2 copy copy">
<path d="M514.688 158.844C455.68 190.758 437.664 223.653 440 266.875C442.355 310.45 466.013 313.376 489.562 355.75C512.536 293.448 491.896 302.021 513.312 239.719C513.143 240.852 512.955 242.263 512.79 243.462C512.43 245.656 512.221 247.517 512.221 247.517C512.221 247.517 512.064 249.141 511.224 255.667C510.054 264.75 509.602 273.214 508.582 286.776C505.942 321.877 504.573 362.633 504.572 362.707C504.77 362.459 519.12 344.956 526.5 337.062C551.327 314.177 556.841 298.765 558.562 274.469C560.284 250.172 526.703 201.089 521.125 191.25C515.547 181.411 517.897 179.575 514.688 158.844Z" fill="#ed64a6" fill-rule="evenodd" opacity="1" stroke="none"/>
</g>
<g id="Layer-2-copy-copy_3" vectornator:layerName="Layer 2 copy copy">
<path d="M608.062 357.844C595.621 358.519 582.652 361.808 571.469 370.25C541.989 392.505 541.233 428.821 541.219 429.656C541.909 428.786 546.009 429.558 554.238 424.282C561.369 419.711 571.2 410.926 574.298 410.5C574.178 410.599 568.276 415.989 568.152 416.092C564.633 421.384 541.173 441.476 549.781 446.562C558.399 451.655 602.707 443.094 612.688 438.688C622.668 434.281 637.108 414.921 639.906 401.5C642.705 388.079 643.846 390.486 655.031 364.5C648.038 362.849 628.798 356.719 608.062 357.844Z" fill="#ed64a6" fill-rule="evenodd" opacity="1" stroke="none"/>
</g>
<g id="Layer-2-copy-copy_4" vectornator:layerName="Layer 2 copy copy">
<path d="M624.188 493.188C597.587 491.863 539.994 523.11 527.625 543.906C523.509 550.827 521.664 560.767 522.445 569.433C523.958 586.22 531.612 598.838 531.612 598.838C531.612 598.838 537.032 604.159 542.063 599.147C546.263 594.962 552.114 583.372 557.847 577.731C576.465 559.41 599.059 537.533 604.051 537.086C602.825 538.024 601.586 539.913 600.461 540.723C597.431 543.362 556.519 579.235 546 603.906C569.193 616.977 596.684 603.624 615.812 592.562C634.941 581.501 641.067 559.414 650.938 546.688C660.808 533.961 673.486 518.398 709.531 525.312C691.35 504.079 650.788 494.512 624.188 493.188Z" fill="#ed64a6" fill-rule="evenodd" opacity="1" stroke="none"/>
</g>
<g id="Layer-2-copy-copy_5" vectornator:layerName="Layer 2 copy copy">
<path d="M613.344 632.438C605.91 632.166 598.189 632.921 590.25 634.969C547.909 645.893 527.889 713.3 540.031 709.469C546 707.586 559.247 704.68 577.457 700.532C586.954 698.369 598.634 695.757 609.986 694.269C614.241 693.711 618.436 692.758 622.873 692.627C619.675 692.954 634.489 691.421 630.998 692.042C634.773 691.662 635.824 691.429 639.772 691.081C636.253 691.835 634.173 692.37 629.265 693.224C621.329 694.605 614.456 696.692 606.089 698.96C580.07 706.013 555.139 715.58 552.363 717.39C565.935 715.214 621.3 744.523 648.969 740.594C677.127 736.595 717.095 696.74 737.812 678.219C725.712 673.57 720.687 681.726 694.312 666.188C672.883 653.562 645.556 633.614 613.344 632.438Z" fill="#ed64a6" fill-rule="evenodd" opacity="1" stroke="none"/>
</g>
<g id="Layer-2" vectornator:layerName="Layer 2">
<path d="M370.969 597.094C353.48 597.094 332.007 600.998 298.625 613.656C333.796 674.58 362.854 682.484 379.969 688.5C397.084 694.516 440.739 684.842 461.438 675.781C444.099 658.442 404.269 642.952 367.832 629.948C364.04 628.594 364.122 628.608 360.432 627.309C360.423 627.306 359.371 626.803 359.362 626.8C359.156 626.735 368.165 627.549 367.96 627.485C374.241 628.456 369.211 627.308 377.43 629.34C388.474 632.07 400.907 635.599 413.759 640.206C455.709 655.244 500.149 676.383 500.149 676.383C500.149 676.383 500.084 667.662 500.069 667.641C492.11 664.276 482.473 656.451 469.438 641.688C455.955 626.418 424.808 604.891 399.875 600.25C390.525 598.51 381.462 597.094 370.969 597.094Z" fill="#ed64a6" fill-rule="evenodd" opacity="1" stroke="none"/>
</g>
</svg>
