<?xml version="1.0" encoding="UTF-8" standalone="no"?> <!DOCTYPE svg PUBLIC "-//W3C//DTD SVG 1.1//EN" "http://www.w3.org/Graphics/SVG/1.1/DTD/svg11.dtd">
<svg version="1.1" xmlns="http://www.w3.org/2000/svg" viewBox="0 0 3000 1024" style="fill-rule:nonzero;clip-rule:evenodd;stroke-linecap:round;stroke-linejoin:round;" height="100%" xml:space="preserve" xmlns:xlink="http://www.w3.org/1999/xlink"  width="100%">

<g id="Layer 2">
<path fill="#2D3748" opacity="1" d="M1510.44+145.406C1593.84+148.999+1653.98+157.703+1691.25+173.531C1720.83+186.095+1737.75+196.554+1747.34+208.312L1684.94+243.781L1663.44+183.312L1673.72+250.219L1598.97+292.375L1571.25+275L1617.25+183.531L1587.62+221.531L1531.12+165.156L1580.75+233.344L1561.16+268.5L1515.56+245.938L1579.75+297.406L1621.88+372.094L1539.97+426.531L1589.28+406.438L1575.56+488.219L1604.66+396.219L1629.41+385.469L1670.34+459.688L1510.44+545.188C1510.44+358.954+1510.44+178.885+1510.44+145.406ZM1754.03+219.062C1754.82+220.86+1755.59+222.664+1756.16+224.562C1757.93+230.485+1757.38+242.151+1754.66+257.156C1753.48+263.655+1751.94+270.57+1750.12+277.719C1748.55+283.936+1746.88+289.985+1745.19+295.594C1744.6+297.552+1743.22+301.858+1743.09+302.25C1743.02+302.477+1742.99+302.622+1742.97+302.688L1687.41+450.312L1688.19+447.906L1673.44+422.406L1693.25+338.844L1665.53+407.688L1605.97+303.688L1618.97+296.031L1722.66+300.281L1637.31+285.812L1754.03+219.062ZM1672.69+489.406L1585.19+721.906C1584.7+723.205+1584.43+724.581+1584.44+725.969L1584.88+833C1584.87+834.265+1585+835.243+1585.03+836.438L1531.53+727.688L1531.78+571.875L1672.69+489.406ZM1499.47+122.094C1493.01+121.86+1487.63+127.007+1487.62+133.469C1487.62+176.07+1487.62+889.041+1487.62+890.531C1487.62+896.831+1492.73+901.937+1499.03+901.938L1598.44+901.938C1599.1+901.938+1599.75+901.865+1600.41+901.75C1601.23+901.605+1602.35+901.351+1603.69+900.938C1605.86+900.266+1608.04+899.343+1610.16+898.125C1617.03+894.173+1621.67+887.791+1621.84+879.219L1621.91+879.219C1621.91+879.083+1621.9+878.978+1621.91+878.844C1621.91+878.811+1621.91+878.783+1621.91+878.75L1621.88+878.75C1622.12+870.533+1619.98+864.98+1615.31+859.375C1615.05+859.06+1613.79+857.593+1613.69+857.469C1613.16+856.855+1612.8+856.406+1612.47+855.969C1609.37+851.912+1607.69+846.124+1607.69+832.969L1607.25+728C1608.69+724.168+1764.55+310.015+1764.59+309.875C1764.72+309.482+1764.96+308.783+1765.28+307.781C1765.8+306.136+1766.38+304.231+1767+302.156C1768.78+296.241+1770.59+289.91+1772.25+283.344C1774.18+275.72+1775.81+268.303+1777.09+261.25C1780.42+242.904+1781.13+228.403+1778.03+218.031C1769.8+190.494+1748.19+172.929+1700.16+152.531C1657.79+134.537+1591.86+125.442+1499.47+122.094ZM1488.88+145.406C1488.88+178.885+1488.88+358.954+1488.88+545.188L1329+459.688L1369.94+385.469L1394.69+396.219L1423.75+488.219L1410.03+406.438L1459.38+426.531L1377.47+372.094L1419.56+297.406L1483.75+245.938L1438.16+268.5L1418.59+233.344L1468.19+165.156L1411.72+221.531L1382.06+183.531L1428.06+275L1400.34+292.375L1325.59+250.219L1335.91+183.312L1314.41+243.781L1252+208.312C1261.6+196.558+1278.52+186.091+1308.09+173.531C1345.36+157.703+1405.47+148.999+1488.88+145.406ZM1245.28+219.062L1362.03+285.812L1276.69+300.281L1380.34+296.031L1393.38+303.688L1333.81+407.688L1306.06+338.844L1325.91+422.406L1311.16+447.906L1311.94+450.312L1256.38+302.688C1256.35+302.622+1255.95+301.376+1255.78+300.844C1255.29+299.309+1254.75+297.552+1254.16+295.594C1252.47+289.985+1250.79+283.936+1249.22+277.719C1247.41+270.57+1245.87+263.655+1244.69+257.156C1241.96+242.151+1241.39+230.485+1243.16+224.562C1243.72+222.664+1244.49+220.86+1245.28+219.062ZM1326.66+489.406L1467.56+571.875L1467.81+727.688L1414.25+836.5C1414.28+835.275+1414.44+834.269+1414.44+832.969L1414.88+725.969C1414.88+724.581+1414.64+723.205+1414.16+721.906L1326.66+489.406ZM1499.88+122.094C1407.48+125.442+1341.56+134.537+1299.19+152.531C1251.16+172.929+1229.55+190.494+1221.31+218.031C1218.21+228.403+1218.89+242.904+1222.22+261.25C1223.5+268.303+1225.16+275.72+1227.09+283.344C1228.76+289.91+1230.53+296.241+1232.31+302.156C1232.94+304.231+1233.51+306.136+1234.03+307.781C1234.35+308.783+1234.59+309.482+1234.72+309.875C1234.77+310.015+1390.57+723.978+1392.06+727.938L1391.62+832.906C1391.62+846.108+1389.98+851.913+1386.88+855.969C1386.54+856.405+1386.15+856.855+1385.62+857.469C1385.52+857.593+1384.26+859.06+1384+859.375C1379.34+864.98+1377.23+870.534+1377.47+878.75L1377.44+878.75C1377.44+878.783+1377.44+878.811+1377.44+878.844C1377.44+878.978+1377.43+879.083+1377.44+879.219L1377.5+879.219C1377.68+887.79+1382.32+894.173+1389.19+898.125C1391.3+899.343+1393.49+900.266+1395.66+900.938C1396.99+901.351+1398.12+901.605+1398.94+901.75C1399.59+901.865+1400.24+901.937+1400.91+901.938L1500.28+901.938C1506.58+901.938+1511.69+896.831+1511.69+890.531C1511.69+889.041+1511.69+176.07+1511.69+133.469C1511.69+127.007+1506.33+121.86+1499.88+122.094ZM101.075+355.289L317.927+355.289L317.927+413.586L243.294+413.586L243.294+849.851L177.95+849.851L177.95+413.586L101.075+413.586L101.075+355.289ZM383.368+355.289L471.134+355.289C507.436+355.289+534.449+363.937+552.173+381.234C574.594+403.656+585.805+437.929+585.805+484.054C585.805+519.502+579.88+547.957+568.028+569.418C556.176+590.879+539.253+604.172+517.259+609.297L608.227+849.851L540.641+849.851L449.993+607.695L449.993+849.851L383.368+849.851L383.368+355.289ZM449.993+574.383C475.831+574.383+494.089+568.403+504.766+556.445C515.443+544.487+520.782+524.307+520.782+495.906C520.782+480.531+519.661+467.398+517.419+456.508C515.176+445.617+511.653+436.755+506.848+429.922C502.044+423.088+495.851+418.07+488.27+414.867C480.689+411.664+471.667+410.062+461.204+410.062L449.993+410.062L449.993+574.383ZM688.403+355.289L865.536+355.289L865.536+411.664L755.028+411.664L755.028+568.297L853.044+568.297L853.044+624.672L755.028+624.672L755.028+793.476L865.536+793.476L865.536+849.851L688.403+849.851L688.403+355.289ZM955.321+355.289L1132.45+355.289L1132.45+411.664L1021.95+411.664L1021.95+568.297L1119.96+568.297L1119.96+624.672L1021.95+624.672L1021.95+793.476L1132.45+793.476L1132.45+849.851L955.321+849.851L955.321+355.289ZM1879.91+355.289L1946.54+355.289L1946.54+793.476L2055.44+793.476L2055.44+849.851L1879.91+849.851L1879.91+355.289ZM2222.42+355.289L2274.31+355.289L2380.34+849.851L2314.35+849.851L2295.77+753.437L2197.76+753.437L2178.86+849.851L2114.8+849.851L2222.42+355.289ZM2286.16+701.867L2271.43+623.07C2261.61+569.471+2253.6+512.242+2247.41+451.383C2244.42+481.065+2240.57+511.121+2235.87+541.55C2231.18+571.98+2225.62+604.278+2219.22+638.445L2207.05+701.867L2286.16+701.867ZM2448.02+355.289L2538.35+355.289C2609.03+355.289+2644.37+399.172+2644.37+486.937C2644.37+520.463+2639.78+545.341+2630.6+561.57C2621.42+577.799+2605.19+590.078+2581.91+598.406C2608.6+609.083+2626.86+622.75+2636.68+639.406C2646.72+655.849+2651.74+680.619+2651.74+713.718C2651.74+804.474+2612.87+849.851+2535.14+849.851L2448.02+849.851L2448.02+355.289ZM2510.8+573.101C2536.64+573.101+2554.58+567.122+2564.61+555.164C2574.65+542.565+2579.67+520.463+2579.67+488.859C2579.67+435.474+2560.45+408.781+2522.01+408.781L2516.89+408.781L2514+408.781C2512.3+408.781+2511.23+408.888+2510.8+409.101L2510.8+573.101ZM2510.8+792.836C2538.13+792.836+2557.03+786.963+2567.5+775.218C2577.96+763.474+2583.19+742.226+2583.19+711.476C2583.19+679.872+2577.75+657.771+2566.86+645.172C2556.18+632.359+2537.49+625.953+2510.8+625.953L2510.8+792.836ZM2911.61+365.539L2911.61+430.562C2891.32+416.041+2873.06+408.781+2856.84+408.781C2839.33+408.781+2825.02+414.974+2813.91+427.359C2802.81+439.104+2797.26+454.799+2797.26+474.445C2797.26+491.742+2801.21+506.583+2809.11+518.968C2813.17+525.588+2819.84+534.13+2829.13+544.593C2838.42+555.057+2850.43+567.656+2865.16+582.39C2892.28+609.937+2910.75+633.747+2920.58+653.82C2930.4+673.252+2935.31+697.062+2935.31+725.25C2935.31+763.474+2924.53+794.971+2902.96+819.742C2881.39+843.872+2853.74+855.937+2820+855.937C2791.6+855.937+2767.36+848.143+2747.29+832.554L2747.29+766.57C2770.99+783.867+2792.56+792.515+2811.99+792.515C2830.14+792.515+2844.34+786.483+2854.59+774.418C2864.84+762.353+2869.97+745.963+2869.97+725.25C2869.97+707.312+2866.02+691.19+2858.12+676.883C2854.06+670.049+2848.4+662.202+2841.14+653.34C2833.88+644.478+2824.8+634.601+2813.91+623.711C2797.04+607.054+2783.06+592.32+2771.95+579.508C2760.85+566.695+2752.63+555.484+2747.29+545.875C2737.04+527.083+2731.91+503.38+2731.91+474.765C2731.91+436.114+2741.95+405.471+2762.02+382.836C2782.31+359.987+2809.54+348.562+2843.7+348.562C2867.41+348.562+2890.04+354.221+2911.61+365.539Z"/>
</g>
</svg>
